<svg
  aria-hidden="true"
  fill="currentColor"
  height="1em"
  stroke="currentColor"
  strokeWidth="0"
  viewBox="0 0 256 256"
  width="1em"
  xmlns="http://www.w3.org/2000/svg">
  <path d="M128 0c70.645 0 128 57.354 128 128 0 70.645-57.355 128-128 128C57.354 256 0 198.644 0 128 0 57.354 57.354 0 128 0zM44.292 205.248l108.321-27.569 57.577-57.82s5.611-19.518 0-40.255l-50.014 50.257-18.785 36.595-43.427 8.05C87.718 164.26 82.107 158.894 74.3 150.599l8.05-42.939 36.596-19.028 50.99-50.746c-21.714-6.587-41.231.489-41.231.489L70.885 95.95 43.315 204.515l.976.733zm73.922-74.167l28.544-14.638 55.137-55.136c-1.952-3.416-2.927-4.88-6.343-8.296-3.415-3.415-4.88-4.148-8.295-6.343l-55.137 55.136-14.639 28.788.733.489z"/>
</svg>
