<?xml version="1.0" encoding="UTF-8" standalone="no"?>
<!DOCTYPE svg PUBLIC "-//W3C//DTD SVG 1.1//EN" "http://www.w3.org/Graphics/SVG/1.1/DTD/svg11.dtd">
<svg width="100%" height="100%" viewBox="0 0 460 510" version="1.1" xmlns="http://www.w3.org/2000/svg" xmlns:xlink="http://www.w3.org/1999/xlink" xml:space="preserve" xmlns:serif="http://www.serif.com/" style="fill-rule:evenodd;clip-rule:evenodd;stroke-linejoin:round;stroke-miterlimit:2;">
    <g transform="matrix(-0.999167,0,0,1.00196,772.739,-52.1022)">
        <path d="M328,431C328,431 445.007,209.213 677,103C677,103 685.885,99.618 688,108C690.115,116.382 679.854,117.697 674,123C668.146,128.303 476.913,237.67 328,483L313,548L318,561L402,459C402,459 610.772,466.264 701,300C701,300 637.574,281.711 620,283C620,283 664.336,253.186 719,265L740,214C740,214 726.663,196.268 667,188C667,188 715.716,159.131 751,177L751,179C751,179 776.808,94.94 773,52C773,52 633.453,66.486 561,103C561,103 568.028,133.418 531,157C531,157 537.942,125.328 528,115C528,115 271.396,214.927 328,431Z" style="fill:white;"/>
    </g>
</svg>
