<svg
  aria-hidden="true"
  fill="currentColor"
  height="1em"
  stroke="currentColor"
  strokeWidth="0"
  viewBox="0 0 256 256"
  width="1em"
  xmlns="http://www.w3.org/2000/svg">
  <path d="M1.475 255.999l163.729-41.473 87.026-86.984s8.481-29.363 0-60.56l-75.595 75.607-28.395 55.055-65.638 12.11c-15.488-15.414-23.97-23.488-35.77-35.967l12.17-64.597 55.313-28.627 77.07-76.342c-32.82-9.91-62.32.734-62.32.734L41.67 91.574 0 254.899l1.475 1.1zm111.733-111.575l43.145-22.02 83.34-82.948c-2.95-5.138-4.425-7.34-9.588-12.48-5.162-5.137-7.375-6.238-12.538-9.542l-83.34 82.948-22.125 43.308 1.106.734z"/>
</svg>
