<?xml version="1.0" encoding="UTF-8" standalone="no"?>
<!DOCTYPE svg PUBLIC "-//W3C//DTD SVG 1.1//EN" "http://www.w3.org/Graphics/SVG/1.1/DTD/svg11.dtd">
<svg width="100%" height="100%" viewBox="0 0 510 510" version="1.1" xmlns="http://www.w3.org/2000/svg" xmlns:xlink="http://www.w3.org/1999/xlink" xml:space="preserve" xmlns:serif="http://www.serif.com/" style="fill-rule:evenodd;clip-rule:evenodd;stroke-linejoin:round;stroke-miterlimit:2;">
    <g transform="matrix(1,0,0,1,25.0002,0)">
        <path d="M445.012,379.743C445.012,379.743 328.102,157.52 96.302,51.1C96.302,51.1 87.425,47.711 85.312,56.11C83.199,64.508 93.452,65.825 99.3,71.139C105.15,76.452 296.223,186.034 445.012,431.844L460,496.972L455.004,509.997L371.074,407.797C371.074,407.797 162.476,415.076 72.323,248.486C72.323,248.486 135.696,230.161 153.255,231.452C153.255,231.452 108.956,201.58 54.338,213.417L33.355,162.317C33.355,162.317 46.681,144.55 106.295,136.267C106.295,136.267 57.619,107.341 22.365,125.245L22.365,127.249C22.365,127.249 -3.422,43.024 0.383,-0.001C0.383,-0.001 139.813,14.514 212.206,51.099C212.206,51.099 205.184,81.577 242.181,105.206C242.181,105.206 235.245,73.471 245.179,63.123C245.179,63.123 501.569,163.246 445.012,379.743Z" style="fill-rule:nonzero;"/>
    </g>
</svg>
